HIERARCHY
ROOT Hips
{
  OFFSET 40.9192 92.6879 18.85
  CHANNELS 6 Xposition Yposition Zposition Zrotation Xrotation Yrotation
  JOINT LeftUpLeg
  {
    OFFSET 8.64259 1.95398 -2.38835
    CHANNELS 3 Zrotation Xrotation Yrotation
    JOINT LeftLeg
    {
      OFFSET 43.7702 0 0
      CHANNELS 3 Zrotation Xrotation Yrotation
      JOINT LeftFoot
      {
        OFFSET 40.6238 0 0
        CHANNELS 3 Zrotation Xrotation Yrotation
        JOINT LeftToeBase
        {
          OFFSET 12.7242 0 0
          CHANNELS 3 Zrotation Xrotation Yrotation
          End Site
          {
            OFFSET 0 0 0
          }
        }
      }
    }
  }
  JOINT RightUpLeg
  {
    OFFSET -8.2249 1.95398 -2.59336
    CHANNELS 3 Zrotation Xrotation Yrotation
    JOINT RightLeg
    {
      OFFSET 43.5653 0 0
      CHANNELS 3 Zrotation Xrotation Yrotation
      JOINT RightFoot
      {
        OFFSET 40.6238 0 0
        CHANNELS 3 Zrotation Xrotation Yrotation
        JOINT RightToeBase
        {
          OFFSET 12.7242 0 0
          CHANNELS 3 Zrotation Xrotation Yrotation
          End Site
          {
            OFFSET 0 0 0
          }
        }
      }
    }
  }
  JOINT Spine
  {
    OFFSET 0.165834 0.87714 6.61349
    CHANNELS 3 Zrotation Xrotation Yrotation
    JOINT Spine1
    {
      OFFSET 7.38963 1.71661e-005 0
      CHANNELS 3 Zrotation Xrotation Yrotation
      JOINT Spine2
      {
        OFFSET 11.9445 1.14441e-005 0
        CHANNELS 3 Zrotation Xrotation Yrotation
        JOINT Spine3
        {
          OFFSET 14.7254 4.19617e-005 0
          CHANNELS 3 Zrotation Xrotation Yrotation
          JOINT Spine4
          {
            OFFSET 10.9679 0 0
            CHANNELS 3 Zrotation Xrotation Yrotation
            JOINT RightShoulder
            {
              OFFSET 2.46616 -1.6653 3.69651
              CHANNELS 3 Zrotation Xrotation Yrotation
              JOINT RightArm
              {
                OFFSET 13.0012 0 0
                CHANNELS 3 Zrotation Xrotation Yrotation
                JOINT RightForeArm
                {
                  OFFSET 28.7848 1.52588e-005 0
                  CHANNELS 3 Zrotation Xrotation Yrotation
                  JOINT RightHand
                  {
                    OFFSET 26.5688 1.52588e-005 0
                    CHANNELS 3 Zrotation Xrotation Yrotation
                    End Site
                    {
                      OFFSET 0 0 0
                    }
                  }
                }
              }
            }
            JOINT LeftShoulder
            {
              OFFSET 2.38034 -1.29275 -3.7523
              CHANNELS 3 Zrotation Xrotation Yrotation
              JOINT LeftArm
              {
                OFFSET 16.3182 6.10351e-005 0
                CHANNELS 3 Zrotation Xrotation Yrotation
                JOINT LeftForeArm
                {
                  OFFSET 27.0901 0 0
                  CHANNELS 3 Zrotation Xrotation Yrotation
                  JOINT LeftHand
                  {
                    OFFSET 24.5451 1.52588e-005 0
                    CHANNELS 3 Zrotation Xrotation Yrotation
                    End Site
                    {
                      OFFSET 0 0 0
                    }
                  }
                }
              }
            }
            JOINT Neck
            {
              OFFSET 5.0226 -0.0266342 0
              CHANNELS 3 Zrotation Xrotation Yrotation
              JOINT Head
              {
                OFFSET 6.69363 2.86102e-005 0
                CHANNELS 3 Zrotation Xrotation Yrotation
                End Site
                {
                  OFFSET 0 0 0
                }
              }
            }
          }
        }
      }
    }
  }
}
MOTION
Frames:	15
Frame Time:	0.0416667
-55.5375 97.436 44.5562 -143.101 -84.9503 -142.773 -169.569 0.659954 93.4651 -9.70068 5.93959 -2.91989 62.8827 1.60486 1.16912 28.0448 -0.625084 0.380824 172.645 0.484008 88.5067 -11.6975 -8.45165 -0.413003 64.346 -2.54137 -1.3992 28.6741 0.1887 -2.86128 0.302017 6.75926 -90.0276 13.346 0.585933 -0.12958 1.6752 0.579661 -0.155256 -20.861 0.597782 0.0525116 -0.848373 0.597789 0.0525096 93.6428 -46.5297 -95.8165 24.3899 -24.7803 -0.628682 24.9592 -0.922505 -78.6032 -17.3201 0.424364 -8.63284 -95.7051 -47.7515 69.5669 -23.9714 12.773 6.08711 -19.5962 -9.82126 -74.3783 10.8942 -0.47678 -7.69042 10.213 1.76164 0.785835 -15.2285 1.48992 0.956677 
-55.5483 97.4198 44.4919 -144.073 -84.9344 -143.656 -169.53 0.719451 93.6158 -9.70418 7.04363 -2.94282 63.0142 2.02615 2.34744 27.3606 -1.08225 -0.354948 172.719 0.322737 88.6177 -11.5012 -8.47689 -0.428963 64.3593 -2.57783 -1.42422 28.3638 0.188057 -3.07779 0.285262 6.75998 -90.0387 13.3553 0.547321 -0.146893 1.68448 0.54032 -0.170845 -20.8516 0.56616 0.0243907 -0.838953 0.566156 0.0243856 93.5226 -46.7564 -95.9687 24.4089 -24.3672 -0.880146 23.8286 -0.553535 -78.8018 -16.1637 0.340123 -8.03154 -95.7817 -47.8314 69.4775 -23.8902 12.8022 6.31668 -19.1797 -9.53597 -74.7979 12.237 -0.413616 -6.89026 8.7578 1.37168 2.14587 -13.1052 0.960069 -0.181065 
-55.5127 97.3992 44.4881 -144.774 -85.0155 -144.312 -169.58 1.12442 93.6117 -10.371 7.47956 -2.91413 62.8876 1.77164 2.57162 28.0004 -0.603534 -0.127938 172.704 0.402096 88.6345 -11.6085 -8.36605 -0.389462 64.3923 -2.57143 -1.41815 28.511 0.198228 -3.17222 0.288228 6.7501 -90.0371 13.3742 0.553988 -0.144545 1.70339 0.547095 -0.168792 -20.8327 0.57181 0.0286358 -0.82007 0.57182 0.0286405 93.6281 -46.715 -95.8069 24.6063 -24.3753 -0.772657 23.8672 -0.353917 -79.1446 -16.0778 0.319375 -7.84672 -95.9178 -47.7349 69.2417 -23.954 12.614 6.36658 -19.4195 -9.70606 -74.5758 11.2212 -0.472376 -7.56936 8.80834 1.35684 1.11674 -13.0085 1.04542 1.12873 
-55.4769 97.4113 44.5073 -144.851 -84.8574 -144.454 -169.588 0.843036 93.5454 -10.167 7.303 -2.91635 62.8978 1.78659 2.42671 27.7231 -0.880458 0.369124 172.614 0.333245 88.5138 -11.7138 -8.57569 -0.394748 64.4059 -2.57709 -1.41984 28.577 0.193956 -3.08401 0.305423 6.76302 -90.0348 13.3484 0.589253 -0.144244 1.67758 0.582329 -0.17004 -20.8586 0.605353 0.0395306 -0.846005 0.605358 0.039529 93.674 -46.6881 -95.7379 24.5172 -24.4569 -0.779968 24.3527 -0.548019 -78.963 -16.6789 0.381128 -8.32459 -95.9751 -47.7772 69.1693 -23.9194 12.7031 6.23363 -19.4917 -9.69169 -74.6129 11.7635 -0.453397 -7.29755 9.00748 1.32566 1.27403 -13.1616 0.999711 0.873482 
-55.5002 97.3948 44.5365 -143.565 -85.1408 -143.13 -169.494 0.967108 93.5769 -9.91676 7.11345 -3.00489 63.4572 2.37467 2.32999 26.8711 -1.50667 -0.0514092 172.755 0.487497 88.6539 -11.5107 -8.30257 -0.440516 64.3365 -2.5724 -1.42117 28.6167 0.199313 -3.15136 0.295162 6.72563 -90.0384 13.4232 0.567046 -0.149214 1.75235 0.559922 -0.174031 -20.7838 0.585666 0.028113 -0.771156 0.585658 0.0281024 93.6901 -46.8572 -95.6821 24.2039 -24.5088 -0.89816 24.4983 -0.887954 -78.6344 -17.0447 0.399446 -8.45384 -95.9789 -47.7223 69.1458 -23.9592 12.7202 6.27054 -19.409 -9.67189 -74.6809 11.071 -0.475423 -7.63473 8.9045 1.29421 1.33838 -13.1109 0.954583 0.921824 
-55.4891 97.4008 44.5718 -144.46 -85.132 -144.074 -169.465 0.843895 93.5736 -9.80684 7.14121 -3.04967 63.174 2.20915 2.42002 27.3758 -1.08044 -0.268144 172.633 0.469429 88.5492 -11.6125 -8.34565 -0.380337 64.5008 -2.6219 -1.4458 28.427 0.184245 -2.99083 0.283447 6.73403 -90.0319 13.4063 0.546944 -0.133487 1.73551 0.540538 -0.157437 -20.8006 0.561777 0.0370671 -0.787932 0.561781 0.0370729 93.6917 -46.9369 -95.6657 24.2212 -24.3149 -0.863803 23.7545 -1.2282 -78.6793 -16.7213 0.38258 -8.3375 -95.959 -47.7888 69.197 -23.8804 12.5428 6.12297 -19.4254 -9.62992 -74.6356 11.4678 -0.535427 -8.03415 9.0395 1.34408 1.35451 -13.2195 0.998346 0.919146 
-55.5852 97.384 44.6266 -140.925 -84.8211 -140.888 -169.545 0.36462 93.2912 -9.23505 6.63248 -3.11389 63.0741 2.24897 2.36757 27.2937 -1.17241 -0.04667 172.674 0.769532 88.3192 -12.2482 -8.74909 -0.620035 64.7609 -2.67076 -1.46369 28.5496 0.189617 -3.0299 0.324589 6.74469 -90.0069 13.3849 0.640698 -0.0953417 1.71414 0.635888 -0.12346 -20.8223 0.639733 0.101635 -0.809616 0.63973 0.101627 93.7235 -46.6677 -95.6622 24.4039 -24.0682 -0.889543 23.0903 -1.51075 -78.71 -15.6925 0.332765 -8.0045 -96.0369 -47.9235 69.1235 -23.7649 12.6285 6.03017 -20.1057 -9.75746 -74.9883 12.4499 -0.517085 -7.6551 8.90975 1.31901 1.73186 -12.9302 0.928181 0.599851 
-55.5871 97.3899 44.6929 -138.717 -84.8116 -138.567 -169.52 0.50176 93.3763 -9.29615 6.77502 -3.10576 62.838 2.06347 2.77554 27.7511 -0.726851 -0.771033 172.745 0.785634 88.4646 -12.151 -8.82978 -0.608774 64.6622 -2.65056 -1.45405 28.4814 0.200005 -3.20693 0.341704 6.73321 -90.0131 13.408 0.671651 -0.111761 1.73722 0.666084 -0.141219 -20.7993 0.674179 0.0952726 -0.786672 0.674184 0.0952745 93.781 -46.5272 -95.594 24.4242 -24.0622 -1.11519 22.8689 -1.74156 -78.7717 -16.6188 0.331807 -7.91999 -95.969 -47.7846 69.1808 -23.5631 13.079 5.83784 -19.7911 -9.53917 -75.3109 12.0795 -0.516565 -7.73336 8.97304 1.32419 1.71377 -12.9652 0.936529 0.584713 
-55.4577 97.4215 44.7636 -143.751 -84.9367 -143.373 -169.477 0.527009 93.534 -9.74281 6.83943 -3.02955 63.5024 2.37399 2.00499 26.9892 -1.48117 0.485577 172.639 0.231691 88.4919 -11.5885 -8.60914 -0.447553 64.4735 -2.61644 -1.44406 28.6637 0.203895 -3.20527 0.312527 6.76802 -90.0437 13.3384 0.599067 -0.163267 1.66763 0.591296 -0.189483 -20.8686 0.620436 0.0243374 -0.855995 0.620429 0.0243237 93.9005 -46.3039 -95.4403 24.1518 -24.2123 -1.4101 22.7712 -1.55384 -79.0181 -17.4058 0.386699 -8.30016 -96.0696 -47.8818 69.0611 -23.02 13.4324 5.48717 -19.3842 -9.24705 -75.9069 12.0669 -0.49871 -7.59129 9.04094 1.43372 1.55103 -12.854 1.06356 0.750996 
-55.9758 97.3566 44.8529 -129.709 -85.2603 -130.335 -169.549 0.869606 92.9101 -8.69039 6.3303 -3.45359 62.5458 1.85451 2.10689 27.4875 -1.06507 0.341816 172.956 2.07132 88.2594 -13.1019 -8.71296 -1.00921 65.2387 -2.76416 -1.49442 28.4947 0.182898 -2.94656 0.367871 6.68038 -89.9228 13.5132 0.767159 0.0557119 1.84251 0.768869 0.0218879 -20.6943 0.714944 0.283708 -0.681641 0.71495 0.283712 94.0058 -45.8367 -95.3506 24.1173 -24.1474 -1.95238 22.2067 -2.34955 -80.4094 -17.835 0.32921 -7.81778 -95.7908 -47.6644 69.4101 -22.1171 13.7827 5.05881 -20.2362 -8.7839 -78.2476 13.3639 -0.431449 -6.83376 9.25862 1.43315 1.53406 -12.8829 1.05805 0.815864 
-55.9653 97.3504 44.8861 -140.419 -86.5524 -141.058 -169.715 1.40959 92.8556 -8.63342 7.97873 -3.40571 62.1611 1.88793 2.74102 27.9931 -0.596517 -0.243686 172.747 2.22359 88.1363 -12.9745 -7.49717 -0.694029 65.2676 -2.70997 -1.46111 28.5739 0.185284 -2.95569 0.225666 6.65346 -89.9172 13.5676 0.487742 0.102302 1.89675 0.491778 0.0807289 -20.6389 0.434451 0.244166 -0.626242 0.434447 0.244156 94.207 -45.5127 -95.0786 23.0282 -23.9346 -2.8588 20.7733 -2.96369 -83.618 -17.2118 0.26153 -7.20753 -95.5422 -47.2955 69.6672 -20.5726 14.0191 4.27948 -18.8982 -7.63704 -81.6862 12.4054 -0.367985 -6.50614 9.34396 1.32646 1.58686 -12.6816 0.951984 0.683273 
-55.499 97.4118 44.9476 -151.452 -86.0625 -150.809 -169.417 1.57748 93.792 -10.1995 8.30734 -3.0362 63.1931 2.21921 2.44616 27.6829 -0.867647 -0.01712 172.756 0.242059 88.8341 -10.9834 -7.2904 -0.237477 64.2968 -2.59651 -1.44022 28.7688 0.210005 -3.26419 0.203683 6.73248 -90.0615 13.4092 0.374382 -0.171029 1.73829 0.366496 -0.187339 -20.7973 0.408471 -0.0506006 -0.784628 0.408476 -0.0505981 94.2785 -45.0374 -95.0432 21.6349 -22.7802 -4.44353 17.0171 -3.18014 -87.803 -13.5865 0.0923079 -5.73547 -94.7223 -46.8726 70.7796 -18.7082 13.5285 2.82121 -15.6778 -6.0573 -86.7627 12.7855 -0.140624 -4.71595 9.41574 1.50453 1.64769 -12.7119 1.12343 0.549475 
-55.4055 97.4529 44.843 -164.266 -85.682 -164.142 -169.785 0.510789 93.2234 -9.4356 8.47938 -2.87222 62.7595 2.28515 2.53815 27.6562 -0.856653 -0.290184 172.277 0.0268904 88.1802 -11.7495 -6.99112 -0.194144 64.5986 -2.63136 -1.44976 28.7656 0.18652 -2.90112 0.114625 6.80985 -90.0128 13.2543 0.221323 -0.0534521 1.58336 0.218756 -0.0631467 -20.952 0.227158 0.0155436 -0.939303 0.227146 0.0155305 94.5677 -44.2646 -94.6964 19.8424 -21.7285 -6.6163 15.0071 -2.79633 -92.2838 -9.85669 0.147827 -6.1181 -94.0028 -46.5149 71.7711 -16.8881 12.3209 0.87265 -11.8163 -4.708 -92.4625 16.548 0.255294 -2.29467 9.64717 1.54849 1.70616 -12.4972 1.16596 0.347359 
-55.3941 97.4264 44.9767 -157.376 -85.8482 -156.952 -169.615 1.12296 93.5171 -10.1897 8.36432 -2.92453 63.1664 2.26049 2.27212 27.7405 -0.877095 0.458467 172.62 0.0856265 88.5729 -11.3351 -7.07994 -0.314972 64.5179 -2.66259 -1.47477 28.7581 0.192695 -2.99989 0.183747 6.7603 -90.0544 13.3536 0.338332 -0.15182 1.68266 0.331322 -0.166565 -20.8529 0.368315 -0.0431128 -0.840205 0.368312 -0.0431193 95.1388 -43.3328 -93.8945 18.4595 -19.2816 -9.51601 12.1632 -2.93184 -97.1171 -7.31632 0.10477 -5.01195 -93.9892 -46.2551 71.7146 -14.549 9.41381 -0.601879 -6.01863 -4.05724 -98.8261 15.2328 0.410528 -1.08774 9.89978 1.53931 1.32586 -12.1365 1.19826 0.835966 
-55.3545 97.4161 45.0521 -155.891 -85.9339 -155.608 -169.642 1.15255 93.3652 -10.0852 8.61863 -3.01938 62.8522 2.11698 2.91182 27.9527 -0.659608 0.0354965 172.528 0.32344 88.4096 -11.6237 -7.12879 -0.312723 64.6861 -2.68726 -1.48204 28.6965 0.182965 -2.87238 0.20429 6.73631 -90.0583 13.4016 0.37715 -0.164636 1.73071 0.369543 -0.181083 -20.8049 0.409187 -0.0436766 -0.792233 0.409196 -0.0436764 95.5748 -42.6231 -93.2673 17.291 -15.4031 -12.6402 12.2148 -2.64642 -101.309 -2.91872 0.170891 -5.50171 -93.4102 -45.7375 72.4544 -11.9709 6.26222 -3.15005 -2.24608 -4.42482 -104.127 11.949 0.583606 0.965186 10.2981 1.22904 1.72407 -11.8215 0.830198 0.486657 
